<?xml version="1.0" encoding="utf-8"?>
<!-- Generator: Adobe Illustrator 24.1.2, SVG Export Plug-In . SVG Version: 6.00 Build 0)  -->
<svg version="1.1" id="Layer_1" xmlns="http://www.w3.org/2000/svg" xmlns:xlink="http://www.w3.org/1999/xlink" x="0px" y="0px"
	 viewBox="0 0 200.4 150" style="enable-background:new 0 0 200.4 150;" xml:space="preserve">
<style type="text/css">
	.st0{fill:#8DB5AA;}
	.st1{fill:#FFFFFF;}
</style>
<g>
	<rect x="-0.4" y="-0.9" class="st0" width="201" height="151"/>
</g>
<rect x="11.6" y="10.1" class="st0" width="180" height="127"/>
<path id="ic_contact_mail_24px" class="st1" d="M175.3,41.6v-8.3L150.3,50l-25-16.7v8.3l25,16.7L175.3,41.6z M183.7-0.1h-167
	C7.5-0.1,0,7.4,0,16.6v116.9c0,9.2,7.5,16.7,16.7,16.7h167c9.2,0,16.6-7.5,16.6-16.7l0.1-116.9C200.3,7.4,192.9-0.1,183.7-0.1z
	 M66.8,24.9c13.8,0,25,11.2,25,25s-11.2,25-25,25s-25-11.2-25-25l0,0C41.7,36.1,52.9,24.9,66.8,24.9C66.7,24.9,66.8,24.9,66.8,24.9z
	 M116.9,125.1H16.7v-8.3c0-16.7,33.4-25.9,50.1-25.9s50.1,9.2,50.1,25.9V125.1z M183.7,75h-66.8V24.9h66.8V75z"/>
</svg>