<?xml version="1.0" encoding="utf-8"?>
<!-- Generator: Adobe Illustrator 24.1.2, SVG Export Plug-In . SVG Version: 6.00 Build 0)  -->
<svg version="1.1" id="Layer_1" xmlns="http://www.w3.org/2000/svg" xmlns:xlink="http://www.w3.org/1999/xlink" x="0px" y="0px"
	 viewBox="0 0 426 131.1" style="enable-background:new 0 0 396 131.1;" xml:space="preserve">
<style type="text/css">
	.st0{fill:#8DB5AA;}
	.st1{fill:none;}
	.st2{fill:#FFFFFF;}
	.st3{font-family:'Continuo';}
	.st4{font-size:83px;}
</style>
<rect class="st0" width="396" height="131.1"/>
<rect x="11.1" y="48.1" class="st1" width="377.5" height="61.9"/>
<text transform="matrix(1 0 0 1 11.0676 102.7536)" class="st2 st3 st4">HOLIDAZE</text>
<g>
	<g>
		<g>
			<g>
				<g>
					<g>
						<path class="st2" d="M382.5,15.1l1.5,1.8c0,0-0.3,2.8-6.2,3.6C377.8,20.5,382.6,19.2,382.5,15.1z"/>
					</g>
					<g>
						<path class="st2" d="M382.5,26.8L384,25c0,0-0.3-2.8-6.2-3.6C377.8,21.3,382.6,22.7,382.5,26.8z"/>
					</g>
				</g>
				<g>
					<polygon class="st2" points="389,20.9 386.5,19.8 380.7,20.9 386.5,22.1 					"/>
				</g>
			</g>
			<g>
				<g>
					<g>
						<g>
							<g>
								<path class="st2" d="M196.2,37.8l-2.8-0.3c0,0-2.1-2.6,2.1-8.3C195.6,29.2,192.7,34.4,196.2,37.8z"/>
							</g>
							<g>
								<path class="st2" d="M186.3,27.9l0.3,2.8c0,0,2.6,2.1,8.3-2.1C194.9,28.5,189.7,31.4,186.3,27.9z"/>
							</g>
						</g>
						<g>
							<polygon class="st2" points="185.8,38.3 188.9,37.2 192.8,31.3 186.9,35.2 							"/>
						</g>
					</g>
				</g>
				<g>
					<path class="st2" d="M191.6,33l-0.5-0.5c7.7-7.7,17.9-11.9,28.8-11.9h164.4v0.7H219.9C209.2,21.3,199.2,25.5,191.6,33z"/>
				</g>
			</g>
		</g>
	</g>
	<g>
		<g>
			<g>
				<g>
					<g>
						<path class="st2" d="M27,26.6l-1.5-1.8c0,0,0.3-2.8,6.2-3.6C31.7,21.2,26.9,22.6,27,26.6z"/>
					</g>
					<g>
						<path class="st2" d="M27,14.9l-1.5,1.8c0,0,0.3,2.8,6.2,3.6C31.7,20.4,26.9,19,27,14.9z"/>
					</g>
				</g>
				<g>
					<polygon class="st2" points="20.5,20.8 23,22 28.8,20.8 23,19.6 					"/>
				</g>
			</g>
			<g>
				<g>
					<g>
						<g>
							<g>
								<path class="st2" d="M213.3,3.9l2.8,0.3c0,0,2.1,2.6-2.1,8.3C213.9,12.5,216.8,7.3,213.3,3.9z"/>
							</g>
							<g>
								<path class="st2" d="M223.2,13.8l-0.3-2.8c0,0-2.6-2.1-8.3,2.1C214.6,13.2,219.8,10.3,223.2,13.8z"/>
							</g>
						</g>
						<g>
							<polygon class="st2" points="223.7,3.4 220.6,4.5 216.7,10.5 222.6,6.5 							"/>
						</g>
					</g>
				</g>
				<g>
					<path class="st2" d="M189.6,21.1H25.2v-0.7h164.4c10.7,0,20.7-4.2,28.3-11.7l0.5,0.5C210.7,16.9,200.5,21.1,189.6,21.1z"/>
				</g>
			</g>
		</g>
	</g>
</g>
</svg>
